<svg xmlns="http://www.w3.org/2000/svg" viewBox="0 0 760 500" width="760" height="500" style="background:#0b1422">
<defs>
  <filter id="glow"><feGaussianBlur stdDeviation="2.5" result="b"/><feMerge><feMergeNode in="b"/><feMergeNode in="SourceGraphic"/></feMerge></filter>
  <linearGradient id="in-grad" x1="0" y1="0" x2="1" y2="0">
    <stop offset="0%" stop-color="#00d4ff" stop-opacity="0.8"/>
    <stop offset="100%" stop-color="#00d4ff" stop-opacity="0.3"/>
  </linearGradient>
  <linearGradient id="out-grad" x1="0" y1="0" x2="1" y2="0">
    <stop offset="0%" stop-color="#39ff8e" stop-opacity="0.3"/>
    <stop offset="100%" stop-color="#39ff8e" stop-opacity="0.9"/>
  </linearGradient>
  <marker id="arr" markerWidth="8" markerHeight="8" refX="6" refY="3" orient="auto">
    <path d="M0,0 L0,6 L8,3 z" fill="#00d4ff" opacity="0.5"/>
  </marker>
</defs>
<text x="220.0" y="24" text-anchor="middle" fill="#00d4ff" opacity="0.7" font-size="12" font-family="JetBrains Mono,monospace" letter-spacing="1">COLUMN 1</text><text x="390.0" y="24" text-anchor="middle" fill="#7b5cfa" opacity="0.7" font-size="12" font-family="JetBrains Mono,monospace" letter-spacing="1">COLUMN 2</text><line x1="305" y1="32" x2="305" y2="470" stroke="rgba(255,255,255,0.05)" stroke-width="1" stroke-dasharray="4 4"/><line x1="90" y1="70" x2="170" y2="70" stroke="url(#in-grad)" stroke-width="2.2"/><circle cx="90" cy="70" r="4" fill="#00d4ff" opacity="0.9" filter="url(#glow)"/><text x="30" y="74" text-anchor="middle" fill="#00d4ff" opacity="0.6" font-size="11" font-family="JetBrains Mono,monospace">a₀</text><line x1="90" y1="120" x2="170" y2="120" stroke="url(#in-grad)" stroke-width="2.2"/><circle cx="90" cy="120" r="4" fill="#00d4ff" opacity="0.4" filter="url(#glow)"/><text x="30" y="124" text-anchor="middle" fill="#00d4ff" opacity="0.6" font-size="11" font-family="JetBrains Mono,monospace">a₁</text><line x1="90" y1="170" x2="170" y2="170" stroke="url(#in-grad)" stroke-width="2.2"/><circle cx="90" cy="170" r="4" fill="#00d4ff" opacity="0.4" filter="url(#glow)"/><text x="30" y="174" text-anchor="middle" fill="#00d4ff" opacity="0.6" font-size="11" font-family="JetBrains Mono,monospace">a₂</text><line x1="90" y1="220" x2="170" y2="220" stroke="url(#in-grad)" stroke-width="2.2"/><circle cx="90" cy="220" r="4" fill="#00d4ff" opacity="0.4" filter="url(#glow)"/><text x="30" y="224" text-anchor="middle" fill="#00d4ff" opacity="0.6" font-size="11" font-family="JetBrains Mono,monospace">a₃</text><line x1="90" y1="270" x2="170" y2="270" stroke="url(#in-grad)" stroke-width="2.2"/><circle cx="90" cy="270" r="4" fill="#00d4ff" opacity="0.4" filter="url(#glow)"/><text x="30" y="274" text-anchor="middle" fill="#00d4ff" opacity="0.6" font-size="11" font-family="JetBrains Mono,monospace">a₄</text><line x1="90" y1="320" x2="170" y2="320" stroke="url(#in-grad)" stroke-width="2.2"/><circle cx="90" cy="320" r="4" fill="#00d4ff" opacity="0.4" filter="url(#glow)"/><text x="30" y="324" text-anchor="middle" fill="#00d4ff" opacity="0.6" font-size="11" font-family="JetBrains Mono,monospace">a₅</text><line x1="90" y1="370" x2="170" y2="370" stroke="url(#in-grad)" stroke-width="2.2"/><circle cx="90" cy="370" r="4" fill="#00d4ff" opacity="0.4" filter="url(#glow)"/><text x="30" y="374" text-anchor="middle" fill="#00d4ff" opacity="0.6" font-size="11" font-family="JetBrains Mono,monospace">a₆</text><line x1="90" y1="420" x2="170" y2="420" stroke="url(#in-grad)" stroke-width="2.2"/><circle cx="90" cy="420" r="4" fill="#00d4ff" opacity="0.4" filter="url(#glow)"/><text x="30" y="424" text-anchor="middle" fill="#00d4ff" opacity="0.6" font-size="11" font-family="JetBrains Mono,monospace">a₇</text><rect x="170" y="70" width="100" height="50" rx="5" fill="rgba(0,212,255,0.07)" stroke="#00d4ff" stroke-width="1.4" opacity="0.8"/><line x1="170" y1="70" x2="270" y2="70" stroke="#00d4ff" stroke-width="1.2" opacity="0.4"/><line x1="170" y1="120" x2="270" y2="120" stroke="#00d4ff" stroke-width="1.2" opacity="0.4"/><line x1="170" y1="70" x2="270" y2="120" stroke="#00d4ff" stroke-width="1.5" opacity="0.55"/><line x1="170" y1="120" x2="270" y2="70" stroke="#00d4ff" stroke-width="1.5" opacity="0.55"/><text x="220.0" y="99.0" text-anchor="middle" fill="#00d4ff" font-size="9" font-family="JetBrains Mono,monospace" opacity="0.7">MZM</text><rect x="170" y="170" width="100" height="50" rx="5" fill="rgba(0,212,255,0.07)" stroke="#00d4ff" stroke-width="1.4" opacity="0.8"/><line x1="170" y1="170" x2="270" y2="170" stroke="#00d4ff" stroke-width="1.2" opacity="0.4"/><line x1="170" y1="220" x2="270" y2="220" stroke="#00d4ff" stroke-width="1.2" opacity="0.4"/><line x1="170" y1="170" x2="270" y2="220" stroke="#00d4ff" stroke-width="1.5" opacity="0.55"/><line x1="170" y1="220" x2="270" y2="170" stroke="#00d4ff" stroke-width="1.5" opacity="0.55"/><text x="220.0" y="199.0" text-anchor="middle" fill="#00d4ff" font-size="9" font-family="JetBrains Mono,monospace" opacity="0.7">MZM</text><rect x="170" y="270" width="100" height="50" rx="5" fill="rgba(0,212,255,0.07)" stroke="#00d4ff" stroke-width="1.4" opacity="0.8"/><line x1="170" y1="270" x2="270" y2="270" stroke="#00d4ff" stroke-width="1.2" opacity="0.4"/><line x1="170" y1="320" x2="270" y2="320" stroke="#00d4ff" stroke-width="1.2" opacity="0.4"/><line x1="170" y1="270" x2="270" y2="320" stroke="#00d4ff" stroke-width="1.5" opacity="0.55"/><line x1="170" y1="320" x2="270" y2="270" stroke="#00d4ff" stroke-width="1.5" opacity="0.55"/><text x="220.0" y="299.0" text-anchor="middle" fill="#00d4ff" font-size="9" font-family="JetBrains Mono,monospace" opacity="0.7">MZM</text><rect x="170" y="370" width="100" height="50" rx="5" fill="rgba(0,212,255,0.07)" stroke="#00d4ff" stroke-width="1.4" opacity="0.8"/><line x1="170" y1="370" x2="270" y2="370" stroke="#00d4ff" stroke-width="1.2" opacity="0.4"/><line x1="170" y1="420" x2="270" y2="420" stroke="#00d4ff" stroke-width="1.2" opacity="0.4"/><line x1="170" y1="370" x2="270" y2="420" stroke="#00d4ff" stroke-width="1.5" opacity="0.55"/><line x1="170" y1="420" x2="270" y2="370" stroke="#00d4ff" stroke-width="1.5" opacity="0.55"/><text x="220.0" y="399.0" text-anchor="middle" fill="#00d4ff" font-size="9" font-family="JetBrains Mono,monospace" opacity="0.7">MZM</text><line x1="270" y1="70" x2="340" y2="70" stroke="rgba(0,212,255,0.25)" stroke-width="1.8"/><line x1="270" y1="120" x2="340" y2="120" stroke="rgba(0,212,255,0.25)" stroke-width="1.8"/><line x1="270" y1="170" x2="340" y2="170" stroke="rgba(0,212,255,0.25)" stroke-width="1.8"/><line x1="270" y1="220" x2="340" y2="220" stroke="rgba(0,212,255,0.25)" stroke-width="1.8"/><line x1="270" y1="270" x2="340" y2="270" stroke="rgba(0,212,255,0.25)" stroke-width="1.8"/><line x1="270" y1="320" x2="340" y2="320" stroke="rgba(0,212,255,0.25)" stroke-width="1.8"/><line x1="270" y1="370" x2="340" y2="370" stroke="rgba(0,212,255,0.25)" stroke-width="1.8"/><line x1="270" y1="420" x2="340" y2="420" stroke="rgba(0,212,255,0.25)" stroke-width="1.8"/><rect x="340" y="120" width="100" height="50" rx="5" fill="rgba(123,92,250,0.08)" stroke="#7b5cfa" stroke-width="1.4" opacity="0.8"/><line x1="340" y1="120" x2="440" y2="120" stroke="#7b5cfa" stroke-width="1.2" opacity="0.4"/><line x1="340" y1="170" x2="440" y2="170" stroke="#7b5cfa" stroke-width="1.2" opacity="0.4"/><line x1="340" y1="120" x2="440" y2="170" stroke="#7b5cfa" stroke-width="1.5" opacity="0.55"/><line x1="340" y1="170" x2="440" y2="120" stroke="#7b5cfa" stroke-width="1.5" opacity="0.55"/><text x="390.0" y="149.0" text-anchor="middle" fill="#7b5cfa" font-size="9" font-family="JetBrains Mono,monospace" opacity="0.7">MZM</text><rect x="340" y="220" width="100" height="50" rx="5" fill="rgba(123,92,250,0.08)" stroke="#7b5cfa" stroke-width="1.4" opacity="0.8"/><line x1="340" y1="220" x2="440" y2="220" stroke="#7b5cfa" stroke-width="1.2" opacity="0.4"/><line x1="340" y1="270" x2="440" y2="270" stroke="#7b5cfa" stroke-width="1.2" opacity="0.4"/><line x1="340" y1="220" x2="440" y2="270" stroke="#7b5cfa" stroke-width="1.5" opacity="0.55"/><line x1="340" y1="270" x2="440" y2="220" stroke="#7b5cfa" stroke-width="1.5" opacity="0.55"/><text x="390.0" y="249.0" text-anchor="middle" fill="#7b5cfa" font-size="9" font-family="JetBrains Mono,monospace" opacity="0.7">MZM</text><rect x="340" y="320" width="100" height="50" rx="5" fill="rgba(123,92,250,0.08)" stroke="#7b5cfa" stroke-width="1.4" opacity="0.8"/><line x1="340" y1="320" x2="440" y2="320" stroke="#7b5cfa" stroke-width="1.2" opacity="0.4"/><line x1="340" y1="370" x2="440" y2="370" stroke="#7b5cfa" stroke-width="1.2" opacity="0.4"/><line x1="340" y1="320" x2="440" y2="370" stroke="#7b5cfa" stroke-width="1.5" opacity="0.55"/><line x1="340" y1="370" x2="440" y2="320" stroke="#7b5cfa" stroke-width="1.5" opacity="0.55"/><text x="390.0" y="349.0" text-anchor="middle" fill="#7b5cfa" font-size="9" font-family="JetBrains Mono,monospace" opacity="0.7">MZM</text><line x1="440" y1="70" x2="540" y2="70" stroke="url(#out-grad)" stroke-width="2.2"/><circle cx="540" cy="70" r="4" fill="#39ff8e" opacity="0.9" filter="url(#glow)"/><text x="620" y="74" text-anchor="middle" fill="#39ff8e" opacity="0.6" font-size="11" font-family="JetBrains Mono,monospace">b₀</text><line x1="440" y1="120" x2="540" y2="120" stroke="url(#out-grad)" stroke-width="2.2"/><circle cx="540" cy="120" r="4" fill="#39ff8e" opacity="0.4" filter="url(#glow)"/><text x="620" y="124" text-anchor="middle" fill="#39ff8e" opacity="0.6" font-size="11" font-family="JetBrains Mono,monospace">b₁</text><line x1="440" y1="170" x2="540" y2="170" stroke="url(#out-grad)" stroke-width="2.2"/><circle cx="540" cy="170" r="4" fill="#39ff8e" opacity="0.4" filter="url(#glow)"/><text x="620" y="174" text-anchor="middle" fill="#39ff8e" opacity="0.6" font-size="11" font-family="JetBrains Mono,monospace">b₂</text><line x1="440" y1="220" x2="540" y2="220" stroke="url(#out-grad)" stroke-width="2.2"/><circle cx="540" cy="220" r="4" fill="#39ff8e" opacity="0.4" filter="url(#glow)"/><text x="620" y="224" text-anchor="middle" fill="#39ff8e" opacity="0.6" font-size="11" font-family="JetBrains Mono,monospace">b₃</text><line x1="440" y1="270" x2="540" y2="270" stroke="url(#out-grad)" stroke-width="2.2"/><circle cx="540" cy="270" r="4" fill="#39ff8e" opacity="0.4" filter="url(#glow)"/><text x="620" y="274" text-anchor="middle" fill="#39ff8e" opacity="0.6" font-size="11" font-family="JetBrains Mono,monospace">b₄</text><line x1="440" y1="320" x2="540" y2="320" stroke="url(#out-grad)" stroke-width="2.2"/><circle cx="540" cy="320" r="4" fill="#39ff8e" opacity="0.4" filter="url(#glow)"/><text x="620" y="324" text-anchor="middle" fill="#39ff8e" opacity="0.6" font-size="11" font-family="JetBrains Mono,monospace">b₅</text><line x1="440" y1="370" x2="540" y2="370" stroke="url(#out-grad)" stroke-width="2.2"/><circle cx="540" cy="370" r="4" fill="#39ff8e" opacity="0.4" filter="url(#glow)"/><text x="620" y="374" text-anchor="middle" fill="#39ff8e" opacity="0.6" font-size="11" font-family="JetBrains Mono,monospace">b₆</text><line x1="440" y1="420" x2="540" y2="420" stroke="url(#out-grad)" stroke-width="2.2"/><circle cx="540" cy="420" r="4" fill="#39ff8e" opacity="0.4" filter="url(#glow)"/><text x="620" y="424" text-anchor="middle" fill="#39ff8e" opacity="0.6" font-size="11" font-family="JetBrains Mono,monospace">b₇</text><rect x="340" y="62" width="100" height="16" rx="3" fill="rgba(0,212,255,0.04)" stroke="rgba(0,212,255,0.2)" stroke-width="1" stroke-dasharray="3 3"/><text x="390.0" y="74" text-anchor="middle" fill="#00d4ff" font-size="8" font-family="JetBrains Mono,monospace" opacity="0.4">pass</text><rect x="340" y="412" width="100" height="16" rx="3" fill="rgba(0,212,255,0.04)" stroke="rgba(0,212,255,0.2)" stroke-width="1" stroke-dasharray="3 3"/><text x="390.0" y="424" text-anchor="middle" fill="#00d4ff" font-size="8" font-family="JetBrains Mono,monospace" opacity="0.4">pass</text><line x1="540" y1="220" x2="570" y2="220" stroke="#00d4ff" stroke-width="1.2" opacity="0.3" stroke-dasharray="5 4"/><line x1="570" y1="48" x2="570" y2="450" stroke="#00d4ff" stroke-width="1.2" opacity="0.3" stroke-dasharray="5 4"/><line x1="70" y1="48" x2="570" y2="48" stroke="#00d4ff" stroke-width="1.2" opacity="0.3" stroke-dasharray="5 4"/><line x1="70" y1="450" x2="570" y2="450" stroke="#00d4ff" stroke-width="1.2" opacity="0.3" stroke-dasharray="5 4"/><line x1="70" y1="48" x2="70" y2="450" stroke="#00d4ff" stroke-width="1.2" opacity="0.3" stroke-dasharray="5 4"/><polygon points="90,220 80,214 80,226" fill="#00d4ff" opacity="0.4"/><line x1="70" y1="220" x2="90" y2="220" stroke="#00d4ff" stroke-width="1.2" opacity="0.3" stroke-dasharray="5 4"/><text x="320" y="466" text-anchor="middle" fill="#00d4ff" font-size="10" font-family="JetBrains Mono,monospace" opacity="0.45" letter-spacing="1">recirculating loop</text><text x="60" y="486" text-anchor="middle" fill="#7a8fa8" font-size="10" font-family="Inter,sans-serif">Input</text><text x="580" y="486" text-anchor="middle" fill="#7a8fa8" font-size="10" font-family="Inter,sans-serif">Output</text></svg>
